# xmcd
#
# Track frame offsets:
#	150
#	22582
#	49507
#	67807
#	98107
#	127657
#	154507
#	173557
#	200557
#
# Disc length: 3176 seconds
#
# Revision: 1
# Processed by: cddbd v1.5.2PL0 Copyright (c) Steve Scherf et al.
# Submitted via: audiograbber 1.83.01
#
DISCID=5a0c6609
DTITLE=Doghouse Daddies - Dig This...
DYEAR=1900
DGENRE=
TTITLE0=Messin' With The  Kid
TTITLE1=Conjured
TTITLE2=Black Diamond
TTITLE3=Oh Baby
TTITLE4=Fun To Visit
TTITLE5=My Babe
TTITLE6=Ain't No Rockin' No More
TTITLE7=It The Sea Was Wiskey
TTITLE8=Mo Blues
EXTD=
EXTT0=
EXTT1=
EXTT2=
EXTT3=
EXTT4=
EXTT5=
EXTT6=
EXTT7=
EXTT8=
PLAYORDER=
